<?xml version="1.0" encoding="utf-8"?>
<!-- Generator: Adobe Illustrator 15.0.0, SVG Export Plug-In . SVG Version: 6.00 Build 0)  -->
<!DOCTYPE svg PUBLIC "-//W3C//DTD SVG 1.1//EN" "http://www.w3.org/Graphics/SVG/1.1/DTD/svg11.dtd">
<svg version="1.1" id="レイヤー_1" xmlns="http://www.w3.org/2000/svg" xmlns:xlink="http://www.w3.org/1999/xlink" x="0px"
	 y="0px" width="966.07px" height="476.786px" viewBox="0 0 966.07 476.786" enable-background="new 0 0 966.07 476.786"
	 xml:space="preserve">
<path fill="#FFF57C" d="M683.362,64.259c-0.205-0.295-0.507-0.492-0.898,0c-0.396,0.396-0.896,0.867-1.479,0
	c-0.587,0.69-1.264-0.442-2.034,0c-0.769-0.053-1.628-0.16-2.567,0c-0.945,0.269-1.976,0.096-3.091,0
	c-1.108,1.882-2.308,1.905-3.58,0c-0.116-0.161-0.231-0.289-0.351-0.395c1.01-2.442,0.31-4.997-1.727-5.25
	c-0.936-2.206-3.704-3.805-6.982-3.805c-1.979,0-3.778,0.587-5.098,1.541c-1.342-1.241-3.397-2.035-5.707-2.035
	c-2.758,0-5.158,1.135-6.406,2.809c-0.979-0.851-2.426-1.388-4.048-1.388c-1.62,0-3.068,0.537-4.046,1.386
	c-1.752-1.13-4.038-1.82-6.544-1.82c-4.082,0-7.59,1.826-9.141,4.438c-0.118,0.091-0.223,0.188-0.292,0.295
	c-0.11-0.082-0.237-0.154-0.372-0.228c-0.299-0.266-0.614-0.522-0.954-0.76c-1.204-1.78-3.682-3.001-6.541-3.001
	c-2.354,0-4.438,0.822-5.774,2.102c-1.782-1.445-4.314-2.35-7.124-2.35c-3.862,0-7.197,1.708-8.78,4.183
	c-2.499-1.663-5.999-2.699-9.87-2.699c-4.469,0-8.438,1.38-10.957,3.515c-2.158-0.592-4.324-1.243-6.198-1.256
	c-3.365-1.554-7.641-2.316-11.329-1.912c-2.381,0.261-4.58,1.222-6.754,2.123c-1.148-0.908-2.816-1.479-4.67-1.479
	c-1.984,0-3.759,0.656-4.904,1.677c-0.202-0.272-0.419-0.533-0.738-0.698c-1.105-0.573-3.391-0.86-4.773-1.122
	c-0.968-0.184-2.038-0.416-3.146-0.621c-1.559-0.615-3.35-0.967-5.259-0.967c-4.847,0-8.945,2.263-10.314,5.38v0.002
	c-0.289-0.169-0.562-0.31-0.806-0.408c-3.745-1.515-6.677-0.481-9.162,1.311c-0.345-0.027-0.693,0.106-1.041,0.594
	c-0.711-0.176-1.422-0.166-2.133,0.836c-0.711-0.143-1.42-0.19-2.129-0.277c-0.383-0.562-0.769-0.3-1.15,0.082
	c-0.653-0.955-1.633-1.785-2.914-2.318c-3.669-1.521-6.154,0.215-8.03,2.361c-0.1,0.009-0.193,0.043-0.292,0.102
	c-0.146-0.701-0.575-1.374-1.208-1.849c-4.168-3.126-8.307-1.102-11.664,1.512c-0.114-0.089-0.23-0.153-0.352-0.164
	c-0.708,0.133-1.418-0.912-2.127,0.436c-0.459-0.435-0.925-0.004-1.387,0.289c-0.237-0.968-1.308-1.805-3.841-2.73
	c-4.379-1.602-14.771-1.605-16.372,2.411c-0.38-0.08-0.761-0.037-1.143,0.295c-1.191-1.299-2.938-2.679-3.812-3.034
	c-4.039-1.654-7.848,0.797-10.283,3.296c-0.221-0.16-0.444-0.395-0.667-0.449c-0.05-0.562-0.149-1.131-0.173-1.65
	c-5.646-0.778-15.354-2.771-18.283,1.65c-0.016-0.007-0.032-0.014-0.047-0.021c-0.021-0.024-0.046-0.042-0.07-0.062
	c0.449-2.165-1.5-3.477-4.823-4.1c-3.051-0.572-5.051-0.44-7.572,0.718c-2.035,0.938-3.627,3.11-6.064,3.247
	c0.396-5.039-13.298-3.334-16.216-1.086c-0.993-1.885-3.112-2.589-6.188-2.178c-3.057,0.406-3.965,1.825-4.701,3.65
	c-0.394-0.003-0.78-0.01-1.167-0.009c-1.151,0.01-2.295-0.022-3.429-0.12c-2.269-1.137-4.494-1.265-6.688,0
	c-2.187-0.541-4.338,0.048-6.446,0c-2.105-0.492-4.174-2.615-6.195,0c-2.021,1.272-4-0.066-5.935,0
	c-1.931,0.672-3.813-2.565-5.647,0c-1.836-0.984-3.623,0.163-5.358,0c-1.736,0.56-3.418,0.754-5.049,0
	c-1.631,1.074-3.207-0.351-4.729,0c-1.463-4.774-2.875-2.082-4.231-0.215c-5.903-4.087-17.627-7.038-21.296,0.003
	c-4.904-2.612-10.733,0.862-6.734,4.458c-5.104,1.935-3.562,5.324-1.981,8.256c-1.406,0.107-3.188,0.28-4.584,0.208
	c0.186,0.625,0.386,2.184,0.466,2.729c-3.227-0.121-5.198,0.893-7.366,1.204c5.946,0.425,11.312-1.245,17.495-0.554
	c0.543,0.06,1.062,0.14,1.569,0.229v0.629h2.957c3.672,0.889,6.956,1.857,12.068,0.532l0.238-0.532h379.457c0,0,0-8.852,0-16.948
	C683.667,65.822,683.562,62.312,683.362,64.259z"/>
<g>
	<g>
		
			<line fill="none" stroke="#BFBFBF" stroke-width="0.2148" stroke-miterlimit="10" x1="186.992" y1="90.75" x2="13.771" y2="462.983"/>
		
			<line fill="none" stroke="#BFBFBF" stroke-width="0.2148" stroke-miterlimit="10" x1="229.9" y1="90.75" x2="85.424" y2="462.983"/>
		
			<line fill="none" stroke="#BFBFBF" stroke-width="0.2148" stroke-miterlimit="10" x1="272.808" y1="90.75" x2="157.076" y2="462.983"/>
		
			<line fill="none" stroke="#BFBFBF" stroke-width="0.2148" stroke-miterlimit="10" x1="315.719" y1="90.75" x2="228.729" y2="462.983"/>
		
			<line fill="none" stroke="#BFBFBF" stroke-width="0.2148" stroke-miterlimit="10" x1="358.63" y1="90.75" x2="300.382" y2="462.983"/>
		
			<line fill="none" stroke="#BFBFBF" stroke-width="0.2148" stroke-miterlimit="10" x1="401.535" y1="90.75" x2="372.034" y2="462.983"/>
		
			<line fill="none" stroke="#BFBFBF" stroke-width="0.2148" stroke-miterlimit="10" x1="444.443" y1="90.75" x2="443.686" y2="462.983"/>
		
			<line fill="none" stroke="#BFBFBF" stroke-width="0.2148" stroke-miterlimit="10" x1="487.351" y1="90.75" x2="515.341" y2="462.983"/>
		
			<line fill="none" stroke="#BFBFBF" stroke-width="0.2148" stroke-miterlimit="10" x1="530.26" y1="90.75" x2="586.99" y2="462.983"/>
		
			<line fill="none" stroke="#BFBFBF" stroke-width="0.2148" stroke-miterlimit="10" x1="573.173" y1="90.75" x2="658.644" y2="462.983"/>
		
			<line fill="none" stroke="#BFBFBF" stroke-width="0.2148" stroke-miterlimit="10" x1="616.078" y1="90.75" x2="730.3" y2="462.983"/>
		
			<line fill="none" stroke="#BFBFBF" stroke-width="0.2148" stroke-miterlimit="10" x1="658.986" y1="90.75" x2="801.949" y2="462.983"/>
		
			<line fill="none" stroke="#BFBFBF" stroke-width="0.2148" stroke-miterlimit="10" x1="701.896" y1="90.75" x2="873.601" y2="462.983"/>
	</g>
	<g>
		
			<line fill="none" stroke="#BFBFBF" stroke-width="0.2148" stroke-miterlimit="10" x1="8.257" y1="406.741" x2="931.101" y2="406.741"/>
		
			<line fill="none" stroke="#BFBFBF" stroke-width="0.2148" stroke-miterlimit="10" x1="11.663" y1="343.342" x2="895.787" y2="343.342"/>
		
			<line fill="none" stroke="#BFBFBF" stroke-width="0.2148" stroke-miterlimit="10" x1="25.885" y1="288.542" x2="865.261" y2="288.542"/>
		
			<line fill="none" stroke="#BFBFBF" stroke-width="0.2148" stroke-miterlimit="10" x1="52.533" y1="240.7" x2="838.613" y2="240.7"/>
		
			<line fill="none" stroke="#BFBFBF" stroke-width="0.2148" stroke-miterlimit="10" x1="76" y1="198.572" x2="815.146" y2="198.572"/>
		
			<line fill="none" stroke="#BFBFBF" stroke-width="0.2148" stroke-miterlimit="10" x1="95.926" y1="162.797" x2="795.219" y2="162.797"/>
		
			<line fill="none" stroke="#BFBFBF" stroke-width="0.2148" stroke-miterlimit="10" x1="114.62" y1="129.236" x2="776.527" y2="129.235"/>
		
			<line fill="none" stroke="#BFBFBF" stroke-width="0.2148" stroke-miterlimit="10" x1="131.652" y1="104.197" x2="793.558" y2="104.196"/>
	</g>
</g>
<polyline fill="none" stroke="#FFDE00" stroke-width="10.7256" stroke-linecap="round" stroke-linejoin="round" stroke-miterlimit="10" points="
	842.058,75.517 867.552,50.005 852.83,53.445 828.019,59.244 818.988,61.353 "/>
<line fill="none" stroke="#F9B900" stroke-width="10.7256" stroke-linejoin="round" stroke-miterlimit="10" x1="852.83" y1="53.445" x2="828.019" y2="59.244"/>
<line fill="none" stroke="#F9B900" stroke-width="10.7256" stroke-linejoin="round" stroke-miterlimit="10" x1="780.603" y1="131.553" x2="842.058" y2="75.517"/>
<line fill="none" stroke="#F9B900" stroke-width="10.7256" stroke-linecap="round" stroke-linejoin="round" stroke-miterlimit="10" x1="868.394" y1="49.523" x2="855.525" y2="93.903"/>
<g>
	<text transform="matrix(1 0 0 1 243.6628 311.2104)" fill="#231815" font-family="'KozGoPro-Heavy-83pv-RKSJ-H'" font-size="15">有限会社</text>
	<text transform="matrix(1 0 0 1 218.4631 329.5854)" fill="#231815" font-family="'KozGoPro-Heavy-83pv-RKSJ-H'" font-size="15">クロスメディア</text>
</g>
<g>
	<text transform="matrix(1 0 0 1 343.2458 247.2368)" fill="#231815" font-family="'KozGoPro-Heavy-83pv-RKSJ-H'" font-size="15">東光印刷</text>
	<text transform="matrix(1 0 0 1 343.2458 265.6099)" fill="#231815" font-family="'KozGoPro-Heavy-83pv-RKSJ-H'" font-size="15">株式会社</text>
</g>
<g>
	<text transform="matrix(1 0 0 1 455.0876 157.5923)" fill="#231815" font-family="'KozGoPro-Heavy-83pv-RKSJ-H'" font-size="15">有限会社</text>
	<text transform="matrix(1 0 0 1 446.6877 175.9653)" fill="#231815" font-family="'KozGoPro-Heavy-83pv-RKSJ-H'" font-size="15">ファーブル</text>
</g>
<g>
	<text transform="matrix(1 0 0 1 567.7966 154.52)" fill="#231815" font-family="'KozGoPro-Heavy-83pv-RKSJ-H'" font-size="15">ITSジャパン</text>
	<text transform="matrix(1 0 0 1 581.2439 172.7954)" fill="#231815" font-family="'KozGoPro-Heavy-83pv-RKSJ-H'" font-size="15">株式会社</text>
</g>
<rect x="167.591" y="257.23" fill="#9E9E9E" width="153.846" height="31.343"/>
<polygon fill="#9E9E9E" points="312.238,300.187 317.487,283.874 309.38,283.715 "/>
<g>
	
		<text transform="matrix(1 0 0 1 179.4973 278.5903)" fill="#FFFFFF" font-family="'KozGoPro-Bold-83pv-RKSJ-H'" font-size="15.0663">1997年〜1999年</text>
</g>
<rect x="241.826" y="181.985" fill="#9E9E9E" width="153.847" height="31.343"/>
<polygon fill="#9E9E9E" points="387.467,224.942 391.722,208.628 383.612,208.47 "/>
<g>
	
		<text transform="matrix(1.1204 0 0 1 239.2966 203.3442)" fill="#FFFFFF" font-family="'KozGoPro-Bold-83pv-RKSJ-H'" font-size="15.0663">　1999年〜2004年</text>
</g>
<rect x="300.224" y="112.719" fill="#9E9E9E" width="153.844" height="31.343"/>
<polygon fill="#9E9E9E" points="447.844,153.696 450.121,139.363 442.01,139.205 "/>
<g>
	
		<text transform="matrix(1.0817 0 0 1 298.1384 134.0786)" fill="#FFFFFF" font-family="'KozGoPro-Bold-83pv-RKSJ-H'" font-size="15.0663">　2005年〜2013年</text>
</g>
<rect x="508.087" y="91.934" fill="#9E9E9E" width="153.844" height="31.343"/>
<polygon fill="#9E9E9E" points="649.751,136.861 656.98,117.578 648.869,117.419 "/>
<g>
	
		<text transform="matrix(1 0 0 1 513.5525 113.2954)" fill="#FFFFFF" font-family="'KozGoPro-Bold-83pv-RKSJ-H'" font-size="15.0663">　2013年〜2019年</text>
</g>
<path fill="#FFFFFF" d="M97.802,445.827c0,0,18.572,11.498-3.539,30.959C94.264,476.786,104.878,467.055,97.802,445.827z"/>
<polyline fill="none" stroke="#FFDE00" stroke-width="10.6729" stroke-linecap="round" stroke-linejoin="round" stroke-miterlimit="10" points="
	767.759,151.548 783.259,138.215 771.898,139.612 752.636,141.982 745.591,142.849 "/>
<path fill="none" stroke="#FFDE00" stroke-width="10.6729" stroke-linecap="round" stroke-linejoin="round" stroke-miterlimit="10" d="
	M771.207,182.188"/>
<line fill="none" stroke="#F9B900" stroke-width="10.6729" stroke-linejoin="round" stroke-miterlimit="10" x1="743.011" y1="172.833" x2="767.759" y2="151.548"/>
<polyline fill="none" stroke="#FFDE00" stroke-width="10.6729" stroke-linejoin="round" stroke-miterlimit="10" points="
	450.287,242.021 482.099,207.666 609.806,207.666 704.437,207.666 756.341,161.605 "/>
<polyline fill="none" stroke="#FFDE00" stroke-width="10.6729" stroke-linejoin="round" stroke-miterlimit="10" points="
	190.521,363.36 306.384,378.143 386.661,310.729 421.505,273.105 "/>
<line fill="none" stroke="#F9B900" stroke-width="10.6729" stroke-linecap="round" stroke-linejoin="round" stroke-miterlimit="10" x1="190.521" y1="363.36" x2="306.384" y2="378.143"/>
<line fill="none" stroke="#F9B900" stroke-width="10.6729" stroke-miterlimit="10" x1="421.505" y1="273.105" x2="450.287" y2="242.021"/>
<line fill="none" stroke="#F9B900" stroke-width="10.6729" stroke-linecap="round" stroke-linejoin="round" stroke-miterlimit="10" x1="609.806" y1="207.666" x2="704.437" y2="207.666"/>
<line fill="none" stroke="#FFDE00" stroke-width="10.6729" stroke-linejoin="round" stroke-miterlimit="10" x1="190.521" y1="363.36" x2="156.97" y2="444.135"/>
<path fill="#9ADFE3" d="M322.974,358.1h6.884l2.112-10.277h-11.312l-0.59,2.686h-3.753l1.502-6.7h-6.812l0.229-0.999h-11.242
	l-0.655,2.65h-5.63l0.42-1.651h-6.812l0.262-0.999h-11.242l-0.729,2.65h-3.73l1.857-6.619h-7.398l-1.92,6.619h-6.188l-1.396,4.688
	h-5.837l1.429-4.688h-10.422l-2.688,8.461h-2.892l-3.27,10.188h8.256l-0.176,0.563h-10.73l-3.45,10.652h5.813l-1.592,5.021h-5.375
	l-2.37,7.326h1.884l-2.16,6.725l-3.327,0.229l-4.094,16.555l12.427-0.865l-0.621,2.016h-2.79l-2.474,7.895h5.338l-1.606,5.25h8.199
	l2.378-7.988l2.356-7.93h0.118l-3.361,11.297h11.851l-2.211,7.783h11.444l1.996-7.357l6.521-0.463l-0.702,2.658h2.479l-1.173,4.5
	h10.771l2.021-8.113h2.851l-0.283,1.662l9.992-0.709l-0.625,2.658h12.301l0.799-3.611h4.519l1.095-5.08h6.718l4.131-19.871h-15.271
	l1.021-4.521l1.684-7.448h0.112l-2.396,10.609h11.953l2.365-11.18h-8.44l0.909-4.098h6.438l0.809-3.768l0.814-3.822h5.204
	l2.2-10.596h-5.138l0.018-0.082L322.974,358.1z M271.742,383.694l0.721-0.049l-0.053,0.202h-0.709L271.742,383.694z
	 M261.681,377.477l-0.928,3.277h-0.111l0.925-3.277H261.681z M248.789,378.377h-0.53l0.542-0.037L248.789,378.377z M248.834,404.588
	l-0.147,0.521h2.748l-0.181,0.625h-5.342l-0.935,3.213H242.8l1.279-4.359H248.834z M297.273,383.847h-0.708l0.036-0.153l0.72-0.049
	L297.273,383.847z M240.156,370.583h1.023l-1.085,4.74h-1.409L240.156,370.583z M256.161,412.25h1.075l-1.043,5.227h-1.48
	L256.161,412.25z"/>
<path fill="#9ADFE3" d="M431.363,293.333h6.451l0.666-8.805h-10.615l-0.205,2.303h-3.521l0.541-5.75h-6.396l0.088-0.854H407.82
	l-0.266,2.274h-5.283l0.176-1.42h-6.395l0.11-0.854H385.61l-0.333,2.274h-3.501l0.856-5.685h-6.949l-0.909,5.685h-5.807
	l-0.674,4.021h-5.478l0.703-4.021h-9.781l-1.357,7.256h-2.708l-1.666,8.717h7.729l-0.088,0.48H345.6l-1.766,9.094h5.438
	l-0.802,4.279h-5.024l-1.207,6.236h1.764l-1.097,5.714l-3.072,0.192l-1.537,14.033l11.464-0.733l-0.31,1.706h-2.6l-1.221,6.675
	h4.969l-0.783,4.431h7.631l1.131-6.746l1.124-6.705h0.11l-1.6,9.554h11.027l-1.013,6.567h10.649l0.877-6.213l6.009-0.391
	l-0.301,2.248h2.31l-0.498,3.798h10.021l0.812-6.853h2.651l-0.046,1.404l9.21-0.601l-0.234,2.248h11.449l0.275-3.056h4.202
	l0.367-4.293h6.261l1.312-16.838h-14.259l0.366-3.844l0.604-6.335h0.106l-0.861,9.024h11.16l0.774-9.51h-7.892l0.319-3.488h6.021
	l0.271-3.213l0.271-3.262h4.87l0.703-9.055H431.2l0.007-0.068L431.363,293.333z M386.761,315.18l0.668-0.042l-0.023,0.171h-0.662
	L386.761,315.18z M376.524,309.883l-0.425,2.791h-0.106l0.428-2.791H376.524z M364.592,310.651h-0.497l0.502-0.031L364.592,310.651z
	 M368.174,332.926l-0.069,0.441h2.562l-0.082,0.526h-4.979l-0.438,2.724h-2.028l0.604-3.691H368.174z M410.646,315.309h-0.662
	l0.014-0.129l0.666-0.042L410.646,315.309z M355.452,304.002h0.958l-0.368,4.045h-1.316L355.452,304.002z M376.031,339.415h1.001
	l-0.271,4.42h-1.378L376.031,339.415z"/>
<path fill="#9ADFE3" d="M526.576,196.225h6.226l-0.359-7.415H522.19l0.066,1.941h-3.398l-0.146-4.85h-6.181l-0.016-0.726h-10.199
	l0.014,1.924h-5.104l-0.002-1.198h-6.18l0.006-0.726h-10.199l-0.043,1.924h-3.381l0.127-4.802h-6.724l-0.172,4.802h-5.606
	l-0.147,3.393h-5.286l0.172-3.393h-9.446l-0.391,6.115h-2.61l-0.491,7.325h7.451l-0.023,0.406h-9.682l-0.533,7.622h5.233
	l-0.227,3.577h-4.832l-0.36,5.206h1.69l-0.319,4.759l-2.925,0.162l0.322,11.651l10.88-0.607l-0.078,1.412h-2.488l-0.321,5.521h4.751
	l-0.192,3.658h7.29l0.241-5.575l0.241-5.551h0.104l-0.343,7.902h10.544l-0.162,5.422h10.168l0.088-5.127l5.697-0.319l-0.021,1.854
	h2.21l-0.023,3.133h9.568l-0.029-5.652h2.535l0.121,1.159l8.729-0.493l0.037,1.854h10.939l-0.084-2.521h4.02l-0.139-3.552h5.99
	l-0.648-13.973h-13.678l-0.09-3.198l-0.15-5.285h0.102l0.218,7.523h10.709l-0.337-7.928h-7.584l-0.098-2.915h5.791l-0.104-2.688
	l-0.111-2.729h4.688l-0.354-7.598h-4.641l-0.002-0.059L526.576,196.225z M486.219,214.529l0.637-0.034l-0.002,0.143h-0.637
	L486.219,214.529z M475.73,210.103l-0.062,2.333h-0.104l0.066-2.333H475.73z M464.347,210.745h-0.479l0.479-0.025V210.745z
	 M470.552,229.299l-0.015,0.366h2.455l-0.014,0.438h-4.771l-0.083,2.258h-1.94l0.12-3.062H470.552z M509.183,214.637h-0.637
	l-0.002-0.108l0.637-0.034L509.183,214.637z M454.72,205.181h0.923l0.156,3.388h-1.271L454.72,205.181z M478.871,234.677h0.957
	l0.277,3.659h-1.318L478.871,234.677z"/>
<path fill="#9ADFE3" d="M650.259,196.051h6.145l-1.719-7.322H644.56l0.424,1.916h-3.354l-1.035-4.789h-6.104l-0.146-0.715h-10.072
	l0.367,1.899h-5.041l-0.221-1.185h-6.104l-0.127-0.715h-10.072l0.312,1.899h-3.34l-0.758-4.742h-6.638l0.713,4.742h-5.539
	l0.479,3.349h-5.222l-0.452-3.349h-9.33l0.738,6.038h-2.578l0.858,7.233h7.355l0.053,0.401h-9.562l0.872,7.525h5.169l0.438,3.533
	h-4.771l0.602,5.141h1.67l0.559,4.699l-2.856,0.16l2.457,11.505l10.633-0.601l0.182,1.396h-2.457l0.693,5.452h4.689l0.481,3.61
	h7.197l-0.783-5.501l-0.781-5.481h0.104l1.111,7.805h10.411l0.834,5.354h10.041l-0.854-5.062l5.563-0.316l0.322,1.832h2.182
	l0.556,3.094h9.446l-1.067-5.584h2.504l0.332,1.146l8.533-0.488l0.379,1.832h10.803l-0.547-2.49h3.969l-0.789-3.506h5.914
	l-3.203-13.797h-13.508l-0.678-3.158l-1.119-5.219h0.104l1.594,7.43h10.574l-1.789-7.829h-7.488l-0.629-2.879h5.717l-0.6-2.654
	l-0.609-2.695h4.629l-1.742-7.502h-4.584l-0.014-0.059L650.259,196.051z M613.763,214.125l0.623-0.034l0.021,0.141h-0.629
	L613.763,214.125z M602.595,209.754l0.36,2.304h-0.1l-0.365-2.304H602.595z M591.472,210.388h-0.472l0.469-0.025L591.472,210.388z
	 M601.005,228.709l0.057,0.362h2.424l0.068,0.433h-4.713l0.332,2.229h-1.919l-0.442-3.024H601.005z M636.464,214.231h-0.631
	l-0.021-0.106l0.621-0.034L636.464,214.231z M580.945,204.894h0.91l0.775,3.345h-1.25L580.945,204.894z M610.207,234.02h0.947
	l0.943,3.613h-1.301L610.207,234.02z"/>
<path fill="#17B6BF" d="M321.974,356.1h6.884l2.112-10.277h-11.312l-0.59,2.686h-3.753l1.502-6.7h-6.812l0.229-0.999h-11.242
	l-0.655,2.65h-5.63l0.42-1.651h-6.812l0.262-0.999h-11.242l-0.729,2.65h-3.73l1.857-6.619h-7.398l-1.92,6.619h-6.188l-1.396,4.688
	h-5.837l1.429-4.688h-10.422l-2.688,8.461h-2.892l-3.27,10.188h8.256l-0.176,0.563h-10.73l-3.45,10.652h5.813l-1.592,5.021h-5.375
	l-2.37,7.326h1.884l-2.16,6.725l-3.327,0.229l-4.094,16.555l12.427-0.865l-0.621,2.016h-2.79l-2.474,7.895h5.338l-1.606,5.25h8.199
	l2.378-7.988l2.356-7.93h0.118l-3.361,11.297h11.851l-2.211,7.783h11.444l1.996-7.357l6.521-0.463l-0.702,2.658h2.479l-1.173,4.5
	h10.771l2.021-8.113h2.851l-0.283,1.662l9.992-0.709l-0.625,2.658h12.301l0.799-3.611h4.519l1.095-5.08h6.718l4.131-19.871h-15.271
	l1.021-4.521l1.684-7.448h0.112l-2.396,10.609h11.953l2.365-11.18h-8.44l0.909-4.098h6.438l0.809-3.768l0.814-3.822h5.204
	l2.2-10.596h-5.138l0.018-0.082L321.974,356.1z M270.742,381.694l0.721-0.049l-0.053,0.202h-0.709L270.742,381.694z
	 M260.681,375.477l-0.928,3.277h-0.111l0.925-3.277H260.681z M247.789,376.377h-0.53l0.542-0.037L247.789,376.377z M247.834,402.588
	l-0.147,0.521h2.748l-0.181,0.625h-5.342l-0.935,3.213H241.8l1.279-4.359H247.834z M296.273,381.847h-0.708l0.036-0.153l0.72-0.049
	L296.273,381.847z M239.156,368.583h1.023l-1.085,4.74h-1.409L239.156,368.583z M255.161,410.25h1.075l-1.043,5.227h-1.48
	L255.161,410.25z"/>
<path fill="#17B6BF" d="M430.363,291.333h6.451l0.666-8.805h-10.615l-0.205,2.303h-3.521l0.541-5.75h-6.396l0.088-0.854H406.82
	l-0.266,2.274h-5.283l0.176-1.42h-6.395l0.11-0.854H384.61l-0.333,2.274h-3.501l0.856-5.685h-6.949l-0.909,5.685h-5.807
	l-0.674,4.021h-5.478l0.703-4.021h-9.781l-1.357,7.256h-2.708l-1.666,8.717h7.729l-0.088,0.48H344.6l-1.766,9.094h5.438
	l-0.802,4.279h-5.024l-1.207,6.236h1.764l-1.097,5.714l-3.072,0.192l-1.537,14.033l11.464-0.733l-0.31,1.706h-2.6l-1.221,6.675
	h4.969l-0.783,4.431h7.631l1.131-6.746l1.124-6.705h0.11l-1.6,9.554h11.027l-1.013,6.567h10.649l0.877-6.213l6.009-0.391
	l-0.301,2.248h2.31l-0.498,3.798h10.021l0.812-6.853h2.651l-0.046,1.404l9.21-0.601l-0.234,2.248h11.449l0.275-3.056h4.202
	l0.367-4.293h6.261l1.312-16.838h-14.259l0.366-3.844l0.604-6.335h0.106l-0.861,9.024h11.16l0.774-9.51h-7.892l0.319-3.488h6.021
	l0.271-3.213l0.271-3.262h4.87l0.703-9.055H430.2l0.007-0.068L430.363,291.333z M385.761,313.18l0.668-0.042l-0.023,0.171h-0.662
	L385.761,313.18z M375.524,307.883l-0.425,2.791h-0.106l0.428-2.791H375.524z M363.592,308.651h-0.497l0.502-0.031L363.592,308.651z
	 M367.174,330.926l-0.069,0.441h2.562l-0.082,0.526h-4.979l-0.438,2.724h-2.028l0.604-3.691H367.174z M409.646,313.309h-0.662
	l0.014-0.129l0.666-0.042L409.646,313.309z M354.452,302.002h0.958l-0.368,4.045h-1.316L354.452,302.002z M375.031,337.415h1.001
	l-0.271,4.42h-1.378L375.031,337.415z"/>
<path fill="#17B6BF" d="M525.576,194.225h6.226l-0.359-7.415H521.19l0.066,1.941h-3.398l-0.146-4.85h-6.181l-0.016-0.726h-10.199
	l0.014,1.924h-5.104l-0.002-1.198h-6.179l0.005-0.726h-10.199l-0.043,1.924h-3.381l0.127-4.802h-6.724l-0.172,4.802h-5.606
	l-0.147,3.393h-5.286l0.172-3.393h-9.446l-0.391,6.115h-2.61l-0.491,7.325h7.451l-0.023,0.406h-9.682l-0.533,7.622h5.234
	l-0.228,3.577h-4.832l-0.359,5.206h1.689l-0.319,4.759l-2.925,0.162l0.322,11.651l10.88-0.607l-0.078,1.412h-2.487l-0.322,5.521
	h4.751l-0.192,3.659h7.29l0.241-5.573l0.241-5.551h0.104l-0.343,7.902h10.544l-0.162,5.422h10.168l0.088-5.127l5.697-0.321
	l-0.02,1.855h2.209l-0.023,3.133h9.568l-0.029-5.655h2.535l0.121,1.162l8.729-0.495l0.037,1.855h10.939l-0.084-2.522h4.02
	l-0.139-3.55h5.99l-0.648-13.973h-13.678l-0.09-3.198l-0.15-5.285h0.103l0.217,7.523h10.709l-0.336-7.928h-7.584l-0.099-2.915h5.791
	l-0.104-2.688l-0.111-2.729h4.689l-0.354-7.598h-4.641l-0.002-0.059L525.576,194.225z M485.219,212.529l0.637-0.034l-0.002,0.143
	h-0.637L485.219,212.529z M474.73,208.103l-0.062,2.333h-0.104l0.066-2.333H474.73z M463.347,208.745h-0.479l0.479-0.025V208.745z
	 M469.552,227.299l-0.016,0.366h2.455l-0.014,0.438h-4.771l-0.083,2.258h-1.94l0.12-3.062H469.552z M508.183,212.637h-0.637
	l-0.002-0.108l0.637-0.034L508.183,212.637z M453.72,203.181h0.923l0.156,3.388h-1.271L453.72,203.181z M477.871,232.677h0.957
	l0.277,3.659h-1.318L477.871,232.677z"/>
<path fill="#17B6BF" d="M649.259,194.051h6.145l-1.719-7.322H643.56l0.424,1.916h-3.354l-1.035-4.789h-6.104l-0.146-0.715h-10.072
	l0.367,1.899h-5.041l-0.221-1.185h-6.104l-0.127-0.715h-10.072l0.312,1.899h-3.34l-0.758-4.742h-6.638l0.713,4.742h-5.539
	l0.479,3.349h-5.222l-0.452-3.349h-9.33l0.738,6.038h-2.578l0.858,7.233h7.355l0.053,0.401h-9.562l0.872,7.525h5.169l0.438,3.533
	h-4.771l0.602,5.141h1.67l0.559,4.699l-2.856,0.16l2.457,11.505l10.633-0.601l0.182,1.396h-2.457l0.693,5.452h4.689l0.481,3.61
	h7.197l-0.783-5.501l-0.781-5.481h0.104l1.111,7.804h10.411l0.834,5.354h10.041l-0.854-5.062l5.563-0.317l0.322,1.833h2.182
	l0.556,3.095h9.446l-1.067-5.584h2.504l0.332,1.146l8.533-0.488l0.379,1.833h10.803l-0.547-2.489h3.969l-0.789-3.506h5.914
	l-3.203-13.797h-13.508l-0.678-3.158l-1.119-5.219h0.104l1.594,7.43h10.574l-1.789-7.829h-7.488l-0.629-2.879h5.717l-0.6-2.654
	l-0.609-2.695h4.629l-1.742-7.502h-4.584l-0.014-0.059L649.259,194.051z M612.763,212.125l0.623-0.034l0.021,0.141h-0.629
	L612.763,212.125z M601.595,207.754l0.36,2.304h-0.1l-0.365-2.304H601.595z M590.472,208.388h-0.472l0.469-0.025L590.472,208.388z
	 M600.005,226.709l0.057,0.362h2.424l0.068,0.433h-4.713l0.332,2.229h-1.919l-0.442-3.024H600.005z M635.464,212.231h-0.631
	l-0.021-0.106l0.621-0.034L635.464,212.231z M579.945,202.894h0.91l0.775,3.345h-1.25L579.945,202.894z M609.207,232.02h0.947
	l0.943,3.613h-1.301L609.207,232.02z"/>
<g>
	<path fill="#FFFFFF" d="M272.764,354.956c-0.109,0.111-0.268,0.229-0.438,0.282c-2.936,5.313-6.496,8.394-12.221,10.289
		c-0.211-0.536-0.778-1.36-1.122-1.81c5.078-1.413,8.327-4.368,9.998-7.389h-9.009l0.59-2.039h9.856l0.49-0.252L272.764,354.956z"/>
	<path fill="#FFFFFF" d="M273.025,360.924l1.919-7.057l2.854,0.141c-0.058,0.156-0.228,0.269-0.562,0.311l-1.778,6.605H273.025
		L273.025,360.924z M284.605,353.234c-0.06,0.155-0.229,0.267-0.563,0.31l-1.146,4.396c-0.795,3.046-2.634,5.929-7.479,7.647
		c-0.262-0.438-0.955-1.262-1.407-1.623c4.449-1.457,5.823-3.799,6.418-6.041l1.272-4.828L284.605,353.234z"/>
	<path fill="#FFFFFF" d="M285.392,357.893h13.062l-0.522,2.172h-12.407c-0.146,0.143-0.395,0.243-0.635,0.271L285.392,357.893z"/>
	<path fill="#FFFFFF" d="M242.999,377.252c1.46-1.073,4.141-3.24,5.577-4.379c0.765-0.592,1.448-0.857,2.037-0.857
		c0.604,0,1.133,0.37,1.646,0.9c1.381,1.451,3.849,4.812,5.167,7.147l-2.609,1.882c-1.089-2.359-3.494-5.934-4.288-6.93
		c-0.26-0.312-0.398-0.484-0.574-0.484c-0.18,0.012-0.424,0.188-0.82,0.502c-0.578,0.506-2.936,2.562-4.229,3.623
		c-0.038,0.18-0.169,0.402-0.427,0.567L242.999,377.252z M257.153,369.973c0.937,0,1.497,0.703,1.249,1.572
		c-0.249,0.869-1.217,1.576-2.156,1.576c-0.938,0-1.5-0.707-1.248-1.576C255.259,370.649,256.248,369.973,257.153,369.973z
		 M257.765,371.545c0.153-0.545-0.193-0.984-0.781-0.984s-1.192,0.439-1.353,0.984c-0.155,0.545,0.192,0.986,0.781,0.986
		C257.037,372.534,257.617,372.061,257.765,371.545z"/>
	<path fill="#FFFFFF" d="M259.885,375.346h13.34l-0.605,2.265h-12.671c-0.154,0.147-0.407,0.253-0.657,0.285L259.885,375.346z"/>
	<path fill="#FFFFFF" d="M282.073,372.799c-0.086,0.146-0.275,0.265-0.554,0.295c-1.468,3.458-3.693,7.152-6.121,9.488
		c-0.562-0.451-1.373-0.904-2.086-1.191c2.354-2.164,4.379-5.48,5.758-9.168L282.073,372.799z M285.576,382.478
		c-0.104-2.336-0.644-6.373-1.416-9.368l2.603-1.02c0.852,2.766,1.521,6.746,1.723,9.313L285.576,382.478z M289.955,369.608
		c0.938,0,1.523,0.703,1.312,1.57c-0.218,0.869-1.154,1.576-2.097,1.576c-0.938,0-1.524-0.707-1.309-1.576
		C288.088,370.282,289.051,369.608,289.955,369.608z M290.63,371.178c0.137-0.545-0.23-0.984-0.818-0.984
		c-0.587,0-1.175,0.439-1.312,0.984c-0.137,0.544,0.229,0.986,0.818,0.986C289.939,372.165,290.502,371.694,290.63,371.178z"/>
	<path fill="#FFFFFF" d="M291.511,375.346h13.34l-0.521,2.265h-12.67c-0.146,0.147-0.396,0.253-0.646,0.285L291.511,375.346z"/>
	<path fill="#FFFFFF" d="M249.285,388.609c-0.101,0.122-0.297,0.185-0.557,0.185c-0.367,0.367-0.853,0.797-1.349,1.213h2.146
		l-1,3.443h-2.271l0.458-1.562h-9.709l-0.477,1.562h-2.154l1.06-3.443h1.817c-0.14-0.443-0.392-0.949-0.627-1.352l2.273-0.857
		c0.377,0.521,0.787,1.26,0.898,1.793l-1.052,0.416h2.584c-0.062-0.539-0.248-1.229-0.441-1.766l2.275-0.673
		c0.26,0.597,0.544,1.438,0.607,1.992l-1.437,0.446h2.423c0.694-0.646,1.544-1.598,2.079-2.316L249.285,388.609z M244.793,396.389
		h-3.291c-0.173,0.251-0.358,0.5-0.569,0.768h5.294l-1.532,5.254h-2.394l0.133-0.443h-7.153l-0.135,0.443h-2.275l1.604-5.254h4.098
		c0.142-0.252,0.286-0.517,0.411-0.768h-2.752l1.208-3.979h8.522L244.793,396.389z M243.007,400.01l0.271-0.912h-7.131l-0.275,0.912
		H243.007z M239.131,394.04l-0.215,0.715h4.037l0.211-0.715H239.131z"/>
	<path fill="#FFFFFF" d="M263.6,398.895h-4.204c1.129,0.611,2.669,1.053,4.332,1.289c-0.676,0.488-1.646,1.451-2.183,2.084
		c-1.821-0.443-3.377-1.266-4.502-2.367l-0.696,2.51h-2.374l0.683-2.432c-1.77,1.023-3.843,1.83-5.837,2.289
		c-0.171-0.555-0.608-1.438-0.981-1.91c1.775-0.283,3.65-0.803,5.17-1.463h-4.202l0.529-1.85h6.146l0.123-0.438h-4.638l0.462-1.606
		h4.627l0.123-0.435h-5.429l0.499-1.735h2.854c-0.005-0.326-0.061-0.713-0.104-1.008h-3.127l0.522-1.816h1.949
		c-0.072-0.539-0.227-1.197-0.386-1.721l2.21-0.642c0.257,0.642,0.509,1.53,0.556,2.114l-0.805,0.246h1.171l0.679-2.395l2.604,0.141
		c-0.059,0.15-0.219,0.26-0.539,0.306l-0.546,1.948h0.78l0.668-2.395l2.652,0.141c-0.062,0.166-0.234,0.26-0.562,0.318l-0.535,1.936
		h1.06l-0.485-0.187c0.522-0.601,1.169-1.474,1.557-2.114l2.426,0.75c-0.123,0.151-0.33,0.197-0.521,0.185
		c-0.34,0.415-0.817,0.921-1.282,1.366h1.919l-0.49,1.815h-2.655c-0.095,0.109-0.274,0.173-0.499,0.155
		c-0.202,0.266-0.463,0.559-0.739,0.854h2.969l-0.473,1.734h-5.54L258.412,395h4.791l-0.438,1.604h-4.803l-0.122,0.438h6.264
		L263.6,398.895z M259.128,392.831c0.229-0.295,0.491-0.647,0.736-1.006h-3.372c0.084,0.34,0.142,0.711,0.149,0.975l-0.204,0.031
		l-0.005,0.017L259.128,392.831z"/>
	<path fill="#FFFFFF" d="M271.81,394.956c-0.315,1.199-1.605,2.184-2.868,2.184s-2.031-0.98-1.71-2.184
		c0.32-1.195,1.607-2.172,2.866-2.172C271.386,392.784,272.117,393.792,271.81,394.956z"/>
	<path fill="#FFFFFF" d="M289.12,395.438l-1.231,5.094c-0.264,1.07-0.641,1.879-2.389,1.879c0.037-0.35,0.02-0.809-0.028-1.217
		l-0.275,1.121h-1.434l0.642-2.604h-0.345l-0.646,2.604h-1.398l0.646-2.604h-0.329l-0.672,2.699h-1.616l0.57-2.273
		c-0.465,0.805-0.984,1.561-1.577,2.209c-0.291-0.348-1.038-0.979-1.463-1.186c0.453-0.488,0.84-1.039,1.197-1.605l-1.23,0.377
		c0.038-0.533,0.02-1.289-0.038-1.979l-1.137,4.457h-2.044l1.26-4.896h-0.017c-0.438,1.252-1.094,2.779-1.77,3.727
		c-0.33-0.254-0.985-0.568-1.42-0.742c0.586-0.867,1.15-2.342,1.57-3.643l1.701,0.393l0.262-1.016l-1.629,0.094
		c-0.073,0.155-0.24,0.232-0.377,0.25l0.147-2.214h1.131c0.277-0.264,0.562-0.542,0.853-0.837c-0.268-0.666-0.76-1.471-1.206-2.072
		c0.511-0.522,1.018-1.033,1.522-1.541l0.184,0.23c0.617-0.814,1.231-1.749,1.668-2.499l2.034,0.795
		c-0.097,0.122-0.274,0.185-0.521,0.185c-0.589,0.844-1.487,1.951-2.238,2.783c0.082,0.125,0.146,0.247,0.214,0.371
		c0.688-0.787,1.351-1.588,1.868-2.279l1.938,0.877c-0.097,0.123-0.291,0.187-0.535,0.187c-0.667,0.771-1.527,1.666-2.424,2.548
		l1.227-0.447c0.348,1.068,0.6,2.469,0.547,3.389l-1.901,0.719c0.022-0.221,0.033-0.454,0.02-0.719l-0.451,0.045l-0.306,1.189
		l1.592-0.455c0.063,0.455,0.128,0.986,0.164,1.486c0.77-1.611,1.24-3.297,1.574-4.615l0.81-3.197h8.034l-1.029,4.236h-6.032
		c-0.058,0.232-0.132,0.469-0.207,0.699L289.12,395.438L289.12,395.438z M278.25,394.319c-0.048-0.265-0.094-0.527-0.162-0.777
		c-0.276,0.267-0.579,0.545-0.854,0.793L278.25,394.319z M281.442,388.103h9.634l-0.457,1.888h-9.655L281.442,388.103z
		 M287.189,392.243h-3.769l-0.186,0.742h3.769L287.189,392.243z M282.724,398.125h0.328l0.258-1.033h-0.328L282.724,398.125z
		 M284.448,398.125h0.345l0.254-1.033h-0.344L284.448,398.125z M286.802,397.092h-0.328l-0.253,1.033h0.325L286.802,397.092z
		 M285.603,400.639c0.146,0,0.229,0,0.284-0.014c0.058-0.031,0.062-0.064,0.084-0.143l0.188-0.771h-0.328L285.603,400.639z"/>
	<path fill="#FFFFFF" d="M304.722,398.958h-4.369c1.231,0.645,2.836,1.195,4.395,1.512c-0.593,0.439-1.44,1.293-1.893,1.83
		c-1.707-0.475-3.406-1.328-4.738-2.336l-0.561,2.438h-2.394l0.549-2.355c-1.776,0.992-3.865,1.814-5.778,2.307
		c-0.198-0.555-0.668-1.406-1.064-1.879c1.754-0.316,3.674-0.852,5.259-1.512h-4.418l0.433-1.785h6.243l0.125-0.531h-4.405
		L292.97,393c-0.299,0.217-0.609,0.435-0.939,0.649c-0.203-0.513-0.73-1.302-1.139-1.644c2.149-1.297,3.888-2.986,4.985-4.41
		l2.563,0.476c-0.085,0.152-0.272,0.263-0.517,0.263c-0.245,0.289-0.492,0.582-0.771,0.873h1.722c0.413-0.521,0.812-1.104,1.1-1.578
		l2.702,0.504c-0.077,0.139-0.237,0.201-0.52,0.216c-0.209,0.274-0.471,0.567-0.732,0.858h4.388l-0.387,1.707h-4.781l-0.089,0.385
		h4.005l-0.32,1.424h-4.012l-0.096,0.402h4.017l-0.321,1.426h-4.021l-0.095,0.404h5.411l-0.377,1.686h-5.454
		c-0.102,0.076-0.242,0.125-0.443,0.154l-0.09,0.377h6.359L304.722,398.958z M298.293,391.299l0.09-0.385h-2.686l-0.09,0.385
		H298.293z M297.868,393.125l0.094-0.402h-2.688l-0.097,0.402H297.868z M294.84,394.551l-0.096,0.404h2.697l0.095-0.404H294.84z"/>
</g>
<g>
	<g>
		<path fill="#FFFFFF" d="M369.224,298.154l0.996,0.321c1.188-0.408,2.38-0.951,3.233-1.432l1.757,1.531
			c-0.117,0.086-0.312,0.086-0.486,0.086c-0.979,0.405-2.32,0.854-3.608,1.236l-0.229,1.454h3.272l-0.271,1.763h-3.283l-0.337,2.119
			h3.366l-0.275,1.775h-3.374l-0.149,0.947h-2.196L369.224,298.154z M381.677,298.191l-1.045,7.157
			c-0.2,1.373-0.781,2.082-3.396,2.082c-0.008-0.544-0.259-1.453-0.513-1.943c0.323,0.025,0.696,0.025,0.994,0.025
			c0.626,0,0.697,0,0.731-0.227l0.789-5.312h-2.067l-1.355,8.951h-2.2l1.655-10.734L381.677,298.191L381.677,298.191z"/>
		<path fill="#FFFFFF" d="M390.488,302.477l-0.496,3.703c-0.105,0.808-0.334,1.49-1.963,1.49c0.01-0.291-0.057-0.686-0.159-1.024
			l-0.31,2.267h-1.795l0.688-4.959h-0.342l-0.507,3.641h-1.599l0.396-2.799h-0.015c-0.315,1.283-0.727,2.584-1.298,3.572
			c-0.354-0.254-1.161-0.658-1.618-0.798c0.979-1.718,1.385-4.243,1.638-6.004l0.583-4.065h7.123l-0.522,3.894h-5.262
			c-0.072,0.512-0.104,0.762-0.167,1.086h1.795l0.146-1.035l2.147,0.103c-0.029,0.125-0.146,0.199-0.418,0.233l-0.096,0.699
			L390.488,302.477L390.488,302.477z M388.594,299.083h-3.236l-0.1,0.705h3.236L388.594,299.083z M388.238,303.954l-0.313,2.314
			c0.164,0,0.254,0,0.3-0.014c0.062-0.024,0.063-0.051,0.075-0.112l0.297-2.188H388.238z M393.802,298.672
			c-0.031,0.123-0.16,0.211-0.445,0.248l-0.887,6.779h-2.016l0.952-7.142L393.802,298.672z M394.589,297.301l2.466,0.087
			c-0.046,0.136-0.162,0.233-0.462,0.271l-1.167,9.202c-0.204,1.606-0.848,2.063-3.749,2.063c-0.008-0.508-0.199-1.317-0.4-1.836
			c0.713,0.021,1.46,0.021,1.714,0.021c0.239,0,0.337-0.062,0.362-0.266L394.589,297.301z"/>
		<path fill="#FFFFFF" d="M410.219,299.28l1.145,0.074c-0.016,0.148-0.066,0.372-0.104,0.57c-0.812,5.474-1.244,7.543-1.818,8.15
			c-0.599,0.687-1.199,0.852-2.797,0.812c0.027-0.382-0.049-0.899-0.178-1.345c-0.295,0.496-0.604,0.951-0.914,1.332
			c-0.418-0.27-1.196-0.646-1.787-0.836c1.727-1.646,2.812-4.662,3.414-7.084h-0.208c-0.713,2.231-2.032,5.188-3.497,6.754
			c-0.445-0.278-1.215-0.598-1.82-0.771c1.578-1.376,2.81-3.873,3.569-5.982h-0.208c-0.435,0.922-0.915,1.76-1.451,2.41
			c-0.322-0.289-1.041-0.75-1.487-0.988c0.264-0.324,0.521-0.734,0.766-1.185h-0.918l-0.255,2.134l1.3-0.188l-0.021,1.542
			c-0.485,0.101-0.992,0.202-1.479,0.29l-0.476,3.955h-2.125l0.436-3.541c-0.609,0.113-1.173,0.215-1.646,0.289
			c-0.047,0.14-0.188,0.215-0.328,0.24l-0.408-1.949c0.709-0.086,1.612-0.199,2.599-0.338l0.298-2.438h-0.651
			c-0.183,0.637-0.4,1.225-0.625,1.695c-0.326-0.227-0.997-0.561-1.423-0.735c0.438-1.01,0.768-2.799,1.007-4.366l2.064,0.354
			l0.134-1.1l2.509,0.111c-0.029,0.135-0.158,0.223-0.46,0.258l-0.244,2.064h1.095l-0.146,1.242
			c0.531-1.117,0.971-2.455,1.281-3.736l2.326,0.404c-0.059,0.113-0.213,0.188-0.437,0.188c-0.168,0.566-0.354,1.146-0.552,1.717
			h4.065L410.219,299.28z M400.179,298.191c-0.067,0.074-0.191,0.123-0.354,0.123c-0.061,0.372-0.139,0.769-0.229,1.164h0.429
			L400.179,298.191z M408.849,300.956c-0.411,1.834-1.171,4.254-2.145,6.135c0.192,0.014,0.372,0.014,0.51,0.014
			c0.208,0,0.335-0.062,0.521-0.268c0.321-0.342,0.694-1.828,1.305-5.881H408.849z"/>
		<path fill="#FFFFFF" d="M360.822,318.331l0.312-1.83h11.947l-0.28,1.847h-4.407l0.321,0.075c-0.062,0.093-0.195,0.184-0.407,0.184
			c-0.7,1.919-2.195,4.229-5.382,5.544c-0.296-0.33-1.158-1.019-1.598-1.315c3.072-1.287,4.049-2.791,4.566-4.498h-5.072V318.331
			L360.822,318.331z M371.649,314.435c-0.086-0.22-0.243-0.464-0.414-0.722l-0.186,1.186h-8.232l0.302-1.814h7.627
			c-0.139-0.166-0.279-0.307-0.416-0.41l1.095-0.641c0.5,0.461,1.085,1.244,1.371,1.732L371.649,314.435z M373.938,314.152
			c-0.247-0.45-0.827-1.284-1.298-1.733l1.021-0.602c0.501,0.461,1.109,1.204,1.398,1.68L373.938,314.152z"/>
		<path fill="#FFFFFF" d="M386.457,315.015c-0.271-0.438-0.7-1.03-1.129-1.429l-0.229,1.646h2.865l-0.252,1.876h-2.873
			c-0.269,1.91-0.854,5.051-5.712,6.984c-0.365-0.424-0.979-1.027-1.507-1.396c4.229-1.576,4.646-3.875,4.89-5.59h-3.175
			l-0.395,2.693h-2.307l0.396-2.693h-2.446l0.281-1.876h2.443l0.38-2.56l2.746,0.142c-0.035,0.142-0.21,0.308-0.533,0.358l-0.3,2.06
			h3.168l0.382-2.7l2.778,0.129c-0.036,0.153-0.202,0.271-0.525,0.32l-0.068,0.514l0.899-0.539c0.474,0.41,0.924,0.949,1.225,1.414
			L386.457,315.015z M388.248,313.92c-0.282-0.45-0.747-1.041-1.243-1.465l0.937-0.588c0.539,0.461,0.956,0.936,1.282,1.422
			L388.248,313.92z"/>
		<path fill="#FFFFFF" d="M394.302,318.187c-1.314,0.69-3.405,1.616-4.957,2.216c-0.244-0.443-0.771-1.16-1.191-1.525
			c4.051-1.44,8.916-4.094,11.455-6.395l2.088,1.412c-0.102,0.104-0.272,0.166-0.53,0.154c-1.287,0.966-2.78,1.959-4.312,2.854
			l0.525,0.155c-0.062,0.13-0.229,0.246-0.521,0.284l-0.829,6.726h-2.471L394.302,318.187z"/>
		<path fill="#FFFFFF" d="M403.348,313.278c1.447,0.373,3.161,1.066,4.196,1.659l-1.408,1.797c-1.004-0.608-2.719-1.319-4.07-1.758
			L403.348,313.278z M401.615,321.95c5.148-1.311,8.896-3.854,10.99-7.398c0.631,0.467,1.393,0.841,2.038,1.16
			c-2.237,3.531-6.133,6.33-11.286,7.896c-0.047,0.146-0.171,0.291-0.331,0.355L401.615,321.95z"/>
	</g>
</g>
<g>
	<g>
		<path fill="#FFFFFF" d="M467.813,194.28l0.992,0.266c1.084-0.338,2.157-0.786,2.917-1.184l1.865,1.265
			c-0.104,0.072-0.285,0.072-0.453,0.072c-0.89,0.337-2.113,0.705-3.298,1.022l-0.042,1.2h3.129l-0.043,1.453h-3.14l-0.061,1.749
			h3.213l-0.045,1.465h-3.219l-0.028,0.78h-2.097L467.813,194.28z M479.72,194.311l-0.127,5.905
			c-0.025,1.133-0.494,1.715-2.988,1.715c-0.074-0.447-0.426-1.195-0.729-1.601c0.312,0.021,0.673,0.021,0.953,0.021
			c0.601,0,0.668,0,0.677-0.187l0.104-4.382h-1.979l-0.199,7.379h-2.103l0.269-8.852h6.123L479.72,194.311L479.72,194.311z"/>
		<path fill="#FFFFFF" d="M488.66,197.848l-0.026,3.054c-0.007,0.665-0.144,1.229-1.695,1.229c-0.025-0.24-0.137-0.563-0.275-0.844
			l-0.021,1.866h-1.715l0.061-4.085h-0.326l-0.045,2.999h-1.522l0.039-2.307h-0.019c-0.146,1.059-0.377,2.13-0.807,2.943
			c-0.367-0.209-1.188-0.542-1.644-0.656c0.728-1.416,0.812-3.498,0.839-4.949l0.062-3.359h6.812l-0.033,3.214h-5.027
			c-0.006,0.423-0.01,0.628-0.029,0.896h1.72l0.012-0.854l2.066,0.083c-0.019,0.104-0.115,0.165-0.369,0.196l-0.008,0.575
			L488.66,197.848L488.66,197.848z M486.439,195.045h-3.094l-0.01,0.584h3.098L486.439,195.045z M486.687,199.068l-0.023,1.906
			c0.158,0,0.244,0,0.285-0.011c0.06-0.021,0.062-0.041,0.062-0.093l0.021-1.803L486.687,199.068L486.687,199.068z M491.371,194.708
			c-0.014,0.103-0.127,0.174-0.396,0.204l-0.035,5.596h-1.922l0.055-5.892L491.371,194.708z M491.957,193.576l2.367,0.072
			c-0.024,0.111-0.127,0.193-0.407,0.224l-0.021,7.591c-0.004,1.324-0.561,1.7-3.332,1.7c-0.068-0.417-0.35-1.084-0.602-1.512
			c0.684,0.02,1.396,0.02,1.639,0.02c0.229,0,0.312-0.051,0.312-0.218L491.957,193.576z"/>
		<path fill="#FFFFFF" d="M507.135,195.209l1.104,0.062c0.002,0.122-0.021,0.307-0.035,0.472c-0.139,4.516-0.309,6.22-0.785,6.72
			c-0.489,0.565-1.047,0.7-2.571,0.669c-0.021-0.313-0.152-0.741-0.328-1.105c-0.223,0.406-0.461,0.781-0.715,1.096
			c-0.435-0.219-1.222-0.532-1.808-0.689c1.455-1.354,2.142-3.841,2.431-5.839h-0.197c-0.42,1.843-1.332,4.277-2.547,5.568
			c-0.459-0.23-1.229-0.491-1.828-0.636c1.344-1.133,2.223-3.192,2.703-4.933h-0.197c-0.305,0.761-0.668,1.452-1.104,1.988
			c-0.345-0.237-1.082-0.62-1.537-0.815c0.211-0.268,0.408-0.607,0.59-0.978h-0.879l0.01,1.761l1.219-0.154l0.166,1.272
			c-0.455,0.082-0.924,0.165-1.379,0.238l0.019,3.257h-2.027l-0.006-2.915c-0.568,0.094-1.098,0.177-1.535,0.238
			c-0.029,0.114-0.156,0.177-0.285,0.198l-0.625-1.606c0.668-0.072,1.521-0.165,2.441-0.28l-0.004-2.009h-0.623
			c-0.101,0.524-0.238,1.009-0.396,1.401c-0.34-0.188-1.021-0.465-1.447-0.609c0.302-0.833,0.398-2.31,0.441-3.606l2.019,0.296
			l-0.003-0.908l2.41,0.092c-0.014,0.112-0.125,0.184-0.407,0.214l0.012,1.706h1.045l0.008,1.025
			c0.375-0.924,0.635-2.027,0.783-3.087l2.271,0.336c-0.041,0.091-0.182,0.151-0.393,0.151c-0.094,0.471-0.203,0.95-0.324,1.421
			h3.885L507.135,195.209z M497.41,194.311c-0.057,0.061-0.168,0.102-0.321,0.102c-0.017,0.306-0.041,0.633-0.082,0.961h0.407
			L497.41,194.311z M506.021,196.593c-0.178,1.513-0.619,3.509-1.326,5.058c0.188,0.011,0.355,0.011,0.484,0.011
			c0.199,0,0.312-0.052,0.467-0.22c0.268-0.281,0.449-1.506,0.559-4.849H506.021z"/>
		<path fill="#FFFFFF" d="M467.725,206.922c-0.076,0.117-0.337,0.19-0.524,0.201c-2.646,4.335-5.669,6.671-9.757,8.492
			c-0.357-0.334-1.157-0.917-1.763-1.251c3.801-1.611,6.949-3.845,9.221-8.224L467.725,206.922z"/>
		<path fill="#FFFFFF" d="M468.173,211.223c1.051-0.769,2.934-2.322,3.948-3.137c0.546-0.424,1.099-0.615,1.627-0.615
			c0.55,0,1.113,0.265,1.707,0.646c1.601,1.039,4.646,3.447,6.402,5.118l-1.895,1.344c-1.56-1.687-4.601-4.241-5.56-4.956
			c-0.311-0.222-0.479-0.35-0.639-0.35c-0.158,0.01-0.334,0.138-0.615,0.361c-0.396,0.361-2.018,1.832-2.924,2.593
			c0.01,0.129-0.053,0.29-0.244,0.407L468.173,211.223z M478.416,206.837c0.566,0.37,1.271,1.015,1.638,1.407l-1.004,0.594
			c-0.312-0.382-1.111-1.113-1.576-1.44L478.416,206.837z M480.228,205.878c0.58,0.379,1.301,0.98,1.666,1.372l-1.002,0.592
			c-0.322-0.371-1.127-1.058-1.594-1.395L480.228,205.878z"/>
		<path fill="#FFFFFF" d="M486.843,207.747c-0.019,0.127-0.146,0.232-0.394,0.254c-0.096,3.137-0.561,5.559-2.459,7.594
			c-0.504-0.248-1.354-0.615-1.975-0.853c1.854-1.634,2.156-4.458,2.17-7.111L486.843,207.747z M490.482,213
			c1.725-0.761,2.729-2.149,3.293-3.694c0.445,0.277,1.453,0.702,1.973,0.895c-1.041,2.221-2.69,3.777-5.76,4.941
			c-0.088,0.119-0.248,0.227-0.379,0.292l-1.641-1.423l0.264-0.259l0.074-7.441l2.666,0.095c-0.029,0.128-0.146,0.243-0.447,0.285
			L490.482,213z"/>
		<path fill="#FFFFFF" d="M508.343,210.871l-4.371,0.011l0.315,0.063c-0.043,0.075-0.155,0.15-0.356,0.15
			c-0.373,1.638-1.254,3.367-4.248,4.511c-0.336-0.27-1.252-0.864-1.717-1.111c2.762-1.076,3.391-2.181,3.625-3.624h-4.937
			l-0.002-1.501h11.662L508.343,210.871z M506.81,207.938h-8.838l-0.004-1.49h8.817L506.81,207.938z"/>
		<path fill="#FFFFFF" d="M518.289,208.881c-0.084,0.074-0.213,0.105-0.413,0.085c-0.875,0.638-2.011,1.275-2.976,1.841
			c0.146,0.032,0.289,0.063,0.42,0.105c-0.041,0.086-0.153,0.16-0.371,0.183l0.115,4.543h-1.844l-0.092-3.997
			c-0.931,0.459-2.808,1.306-3.886,1.66c-0.233-0.29-0.723-0.763-1.088-0.997c1.824-0.621,3.429-1.337,4.738-2.042
			c1.139-0.605,2.613-1.52,3.555-2.304L518.289,208.881z"/>
		<path fill="#FFFFFF" d="M461.722,223.915l0.065-1.554h11.584l-0.047,1.564h-4.27l0.32,0.067c-0.05,0.077-0.167,0.155-0.372,0.155
			c-0.438,1.626-1.602,3.583-4.521,4.699c-0.328-0.278-1.249-0.859-1.71-1.116c2.815-1.09,3.57-2.367,3.861-3.816L461.722,223.915
			L461.722,223.915z M471.73,220.606c-0.111-0.186-0.295-0.395-0.492-0.612l-0.031,1.008h-7.979l0.062-1.543h7.396
			c-0.154-0.142-0.312-0.263-0.454-0.35l0.979-0.544c0.541,0.392,1.207,1.057,1.545,1.472L471.73,220.606z M473.914,220.365
			c-0.295-0.382-0.961-1.092-1.475-1.474l0.92-0.512c0.541,0.393,1.228,1.025,1.562,1.43L473.914,220.365z"/>
		<path fill="#FFFFFF" d="M486.156,221.1c-0.313-0.373-0.807-0.877-1.268-1.216l-0.021,1.399h2.779l-0.018,1.595h-2.783
			c-0.023,1.622-0.209,4.285-4.676,5.925c-0.406-0.354-1.074-0.872-1.632-1.183c3.9-1.335,4.021-3.286,4.05-4.742h-3.076
			l-0.049,2.286h-2.234l0.055-2.286h-2.373l0.043-1.595h2.369l0.054-2.175l2.682,0.12c-0.021,0.119-0.166,0.262-0.476,0.306
			l-0.034,1.749h3.067l0.039-2.294l2.711,0.108c-0.016,0.131-0.162,0.23-0.471,0.273l-0.006,0.438l0.809-0.461
			c0.506,0.351,1.013,0.81,1.357,1.203L486.156,221.1z M487.76,220.167c-0.33-0.382-0.853-0.884-1.385-1.243l0.836-0.5
			c0.575,0.391,1.041,0.795,1.416,1.208L487.76,220.167z"/>
		<path fill="#FFFFFF" d="M494.148,223.793c-1.191,0.586-3.104,1.371-4.535,1.881c-0.291-0.377-0.887-0.985-1.34-1.295
			c3.75-1.226,8.146-3.478,10.332-5.433l2.193,1.2c-0.086,0.088-0.248,0.142-0.496,0.131c-1.136,0.822-2.463,1.665-3.838,2.425
			l0.524,0.133c-0.045,0.108-0.188,0.208-0.469,0.241l0.006,5.704h-2.393L494.148,223.793z"/>
		<path fill="#FFFFFF" d="M502.326,219.622c1.447,0.318,3.193,0.908,4.269,1.411l-1.15,1.526c-1.045-0.517-2.793-1.12-4.156-1.493
			L502.326,219.622z M501.681,226.985c4.832-1.111,8.162-3.268,9.771-6.281c0.666,0.396,1.449,0.713,2.113,0.988
			c-1.752,2.997-5.195,5.371-10,6.697c-0.027,0.123-0.129,0.246-0.277,0.303L501.681,226.985z"/>
	</g>
</g>
<g>
	<g>
		<path fill="#FFFFFF" d="M594.634,203.188h-6.191l-1.117-7.899h5.918l0.224,1.488h-3.47l0.229,1.578h3.293l0.221,1.47h-3.301
			l0.271,1.848h3.698L594.634,203.188z"/>
		<path fill="#FFFFFF" d="M603.052,203.023c-0.359,0.124-1.187,0.269-2.256,0.269c-3.457,0-5.359-1.763-5.691-3.958
			c-0.426-2.821,1.887-4.147,4.662-4.147c1.088,0,1.867,0.162,2.195,0.283l-0.218,1.449c-0.383-0.121-0.918-0.232-1.604-0.232
			c-1.553,0-2.732,0.772-2.459,2.545c0.256,1.65,1.516,2.515,3.275,2.515c0.562,0,1.184-0.083,1.547-0.186L603.052,203.023z"/>
		<path fill="#FFFFFF" d="M615.396,198.323h-2.424l0.057,0.327c0.394,2.221-0.358,4.042-3.471,5.231
			c-0.453-0.331-1.183-0.807-1.769-1.095c2.898-1.021,3.367-2.459,3.08-4.126l-0.059-0.338h-3.182l0.367,2.188h-2.138l-0.36-2.188
			h-2.271l-0.24-1.475h2.269l-0.322-1.943l2.586,0.109c0.004,0.111-0.113,0.243-0.4,0.283l0.265,1.551h3.174l-0.357-2.076
			l2.611,0.102c0.008,0.121-0.115,0.212-0.402,0.252l0.306,1.723h2.42L615.396,198.323z"/>
		<path fill="#FFFFFF" d="M621.48,199.243c-1.035,0.541-2.729,1.269-4.006,1.741c-0.344-0.349-1.021-0.912-1.51-1.2
			c3.37-1.134,7.182-3.221,8.93-5.031l2.309,1.111c-0.063,0.082-0.211,0.133-0.448,0.122c-0.941,0.761-2.064,1.543-3.246,2.246
			l0.524,0.123c-0.021,0.101-0.146,0.194-0.403,0.224l1.004,5.281h-2.287L621.48,199.243z"/>
		<path fill="#FFFFFF" d="M636.839,200.635c-1.148-0.461-3.05-1.086-4.443-1.475l0.938,4.647h-2.301l-1.795-9.036l2.74,0.102
			c0.01,0.121-0.094,0.232-0.396,0.271l0.564,2.801l0.324-0.406c1.576,0.387,3.785,1.039,5.239,1.56L636.839,200.635z"/>
		<path fill="#FFFFFF" d="M586.259,207.363h12.905l0.222,1.413H593.9l0.099,0.662h2.391l0.731,4.864h-6.801l-0.688-4.864h2.272
			l-0.096-0.662h-5.357L586.259,207.363z M597.828,214.739l-0.827-5.47l2.444,0.095c0.004,0.115-0.11,0.188-0.393,0.22l1.116,7.239
			h-2.024l-0.094-0.622h-8.109l0.088,0.622h-2.022l-1.047-7.554l2.434,0.095c0.002,0.115-0.104,0.188-0.381,0.22l0.725,5.155
			H597.828z M591.484,210.669l0.088,0.611h0.771l-0.09-0.611H591.484z M591.738,212.434l0.09,0.625h0.773l-0.092-0.625H591.738z
			 M594.894,211.281l-0.09-0.611h-0.785l0.092,0.611H594.894z M595.158,213.059l-0.092-0.625h-0.787l0.095,0.625H595.158z"/>
		<path fill="#FFFFFF" d="M604.761,207.331c-0.043,0.096-0.177,0.147-0.404,0.137c-0.197,0.629-0.422,1.257-0.69,1.875l0.504,0.117
			c-0.027,0.094-0.146,0.178-0.382,0.209l1.152,7.174h-1.981l-0.773-4.906c-0.201,0.264-0.406,0.507-0.613,0.73
			c-0.219-0.392-0.799-1.27-1.1-1.65c0.879-0.938,1.637-2.617,1.99-4.229L604.761,207.331z M611.63,211.492
			c0.151,0.327,0.309,0.635,0.504,0.942c0.34-0.266,0.688-0.551,0.934-0.794l1.748,1.101c-0.051,0.042-0.146,0.062-0.262,0.062
			c-0.06,0-0.131-0.009-0.189-0.021c-0.303,0.223-0.896,0.583-1.354,0.838c0.602,0.671,1.325,1.213,2.207,1.587
			c-0.386,0.267-0.89,0.832-1.107,1.219c-2.08-1.005-3.295-2.763-4.219-4.935h-0.158c-0.229,0.148-0.477,0.296-0.754,0.433
			c1.469,0.837,2.201,1.951,2.354,2.878c0.242,1.421-0.817,2.021-1.981,2.021c-0.301,0-0.633,0-0.967-0.022
			c-0.078-0.3-0.236-0.738-0.513-1.091c-0.588,0.256-1.168,0.491-1.711,0.674c-0.299-0.332-0.805-0.803-1.233-1.08
			c1.395-0.33,3.029-1.001,4.051-1.672l-0.162-0.191c-0.877,0.489-1.961,0.946-2.871,1.245c-0.248-0.288-0.705-0.724-1.073-0.968
			c0.981-0.213,2.157-0.627,3.018-1.062c-0.064-0.042-0.129-0.085-0.207-0.127c-0.615,0.254-1.264,0.477-1.906,0.657
			c-0.256-0.244-0.814-0.71-1.15-0.933c0.827-0.181,1.685-0.444,2.433-0.762h-1.912l-0.314-1.96
			c-0.348-0.199-0.717-0.367-1.018-0.473c1.17-0.671,1.938-1.539,2.324-2.291l2.198,0.271c-0.024,0.104-0.128,0.168-0.341,0.168
			l-0.111,0.178h1.942l0.271-0.073l1.528,0.637c-0.046,0.074-0.166,0.116-0.317,0.137c-0.17,0.251-0.377,0.534-0.627,0.817h2.742
			l0.449,2.59H611.63L611.63,211.492z M606.73,209.911l0.096,0.578h1.429l-0.101-0.578H606.73z M608.498,208.902
			c0.121-0.126,0.253-0.283,0.367-0.44h-1.805c-0.131,0.147-0.264,0.293-0.41,0.44H608.498z M609.482,214.877
			c-0.391,0.233-0.812,0.447-1.252,0.661c0.188,0.011,0.359,0.011,0.504,0.011C609.265,215.549,609.468,215.282,609.482,214.877z
			 M611.714,210.489l-0.101-0.578h-1.623l0.101,0.578H611.714z"/>
		<path fill="#FFFFFF" d="M620.638,207.143l0.674,3.663h-3.678l1.073,6.005h-2.038l-1.703-9.668H620.638z M618.896,208.168h-1.732
			l0.062,0.336h1.731L618.896,208.168z M617.451,209.774h1.736l-0.064-0.357h-1.733L617.451,209.774z M627.148,207.143l1.56,8.096
			c0.229,1.197-0.199,1.572-2.396,1.572c-0.088-0.311-0.332-0.771-0.588-1.145c-0.203,0.224-0.385,0.48-0.478,0.685
			c-1.135-0.235-2.028-0.652-2.735-1.218c-0.435,0.447-1.188,0.865-2.438,1.186c-0.312-0.289-0.924-0.738-1.396-0.983
			c1.354-0.276,1.998-0.683,2.279-1.087h-2.146l-0.193-1.084h2.476l-0.074-0.403h-2.271l-0.188-1.048h0.854
			c-0.148-0.201-0.314-0.411-0.478-0.581l1.523-0.326c0.307,0.272,0.61,0.623,0.776,0.907h1.187
			c0.121-0.273,0.229-0.612,0.279-0.877h-0.644l-0.682-3.693L627.148,207.143L627.148,207.143z M625.841,214.249h-2.404
			c0.65,0.49,1.561,0.841,2.709,1.002c-0.049,0.043-0.109,0.096-0.158,0.149h0.488c0.172,0,0.205-0.054,0.182-0.182l-0.832-4.382
			h-2.68l1.684,0.391c-0.024,0.086-0.164,0.117-0.36,0.117c-0.08,0.105-0.168,0.242-0.273,0.369h1.043l0.197,1.048h-2.572
			l0.074,0.403h2.703L625.841,214.249z M625.314,208.168h-1.789l0.062,0.336h1.791L625.314,208.168z M623.76,209.417l0.072,0.389
			h1.793l-0.074-0.389H623.76z"/>
		<path fill="#FFFFFF" d="M632.771,210.827l0.676,3.391c0.935,1.012,2.322,1.012,5.088,1.012c1.724,0,3.746-0.043,5.16-0.14
			c-0.153,0.353-0.315,1.069-0.326,1.509c-1.108,0.042-2.641,0.074-4.073,0.074c-3.509,0-5.021-0.021-6.474-1.188
			c-0.465,0.396-0.951,0.77-1.381,1.068c0.027,0.139-0.02,0.193-0.166,0.247l-1.311-1.636c0.481-0.234,1.014-0.533,1.512-0.842
			l-0.408-2.081h-1.481l-0.275-1.415L632.771,210.827L632.771,210.827z M630.146,207.039c0.869,0.459,1.984,1.141,2.537,1.632
			l-1.521,0.956c-0.479-0.494-1.561-1.217-2.428-1.73L630.146,207.039z M636.273,209.059l-0.057-0.273h-3.396l-0.244-1.215h3.396
			l-0.164-0.803l2.43,0.093c0.008,0.115-0.09,0.188-0.367,0.221l0.104,0.489h3.562l0.256,1.215h-3.563l0.057,0.273h2.974l0.78,3.713
			h-2.983l0.062,0.297h3.744l0.265,1.244h-3.753l0.15,0.723h-2.021l-0.146-0.723h-3.58l-0.248-1.244h3.574l-0.062-0.297h-2.844
			l-0.744-3.713H636.273z M635.56,210.111l0.062,0.305h0.929l-0.062-0.305H635.56z M635.886,211.713h0.928l-0.064-0.316h-0.928
			L635.886,211.713z M639.476,210.111h-0.982l0.064,0.305h0.979L639.476,210.111z M639.81,211.713l-0.066-0.316h-0.981l0.063,0.316
			H639.81z"/>
	</g>
</g>
<g>
	<g>
		<path fill="#FFFFFF" d="M597.8,220.86c-0.021,0.035-0.035,0.078-0.089,0.114c0.228,2.521,0.138,4.116-0.227,4.743
			c-0.379,0.609-1.055,0.637-1.439,0.637c-0.456,0-1.303-0.08-2.128-0.204c-0.003-0.177-0.062-0.441-0.128-0.627
			c0.9,0.149,1.812,0.221,2.082,0.221c0.423,0,0.646-0.08,0.842-0.416c0.271-0.538,0.345-2.017,0.169-3.988h-3.729
			c-0.283,2.095-1.189,3.839-3.143,5.04c-0.156-0.114-0.484-0.281-0.724-0.389c1.863-1.148,2.717-2.652,2.99-4.651h-3.215
			l-0.082-0.584h3.375c0.051-0.62,0.041-1.177-0.004-1.896l1.158,0.068c0.002,0.096-0.096,0.147-0.271,0.156
			c0.023,0.635,0.033,1.114-0.014,1.672h3.771l0.182-0.053L597.8,220.86z"/>
		<path fill="#FFFFFF" d="M600.001,222.145h9.733l0.104,0.621h-9.302c-0.057,0.088-0.194,0.15-0.348,0.168L600.001,222.145z"/>
		<path fill="#FFFFFF" d="M614.679,220.163c-0.021,0.07-0.105,0.122-0.279,0.131c-0.104,2.097-0.692,4.32-1.842,5.626
			c-0.232-0.122-0.566-0.237-0.838-0.317c1.104-1.199,1.756-3.431,1.754-5.622L614.679,220.163z M621.558,225.868
			c-0.828-1.545-2.629-4.039-4.113-5.652l0.707-0.271c1.5,1.562,3.312,4.034,4.215,5.665L621.558,225.868z M620.064,218.423
			c0.719,0,1.377,0.436,1.479,0.981c0.098,0.531-0.404,0.975-1.125,0.975c-0.724,0-1.384-0.443-1.479-0.975
			C618.843,218.84,619.367,218.423,620.064,218.423z M621.158,219.405c-0.067-0.391-0.543-0.694-1.043-0.694
			c-0.51,0-0.858,0.304-0.791,0.694c0.066,0.375,0.529,0.688,1.041,0.688C620.888,220.092,621.222,219.762,621.158,219.405z"/>
		<path fill="#FFFFFF" d="M623.074,222.145h9.734l0.121,0.621h-9.299c-0.058,0.088-0.193,0.15-0.345,0.168L623.074,222.145z"/>
		<path fill="#FFFFFF" d="M634.818,219.857c0.57,0.646,1.293,1.692,1.582,2.323l-0.742,0.191c-0.285-0.611-0.979-1.651-1.559-2.331
			L634.818,219.857z M643.548,219.961c-0.021,0.079-0.127,0.113-0.277,0.113c-0.576,3.087-2.1,4.988-5.518,6.199
			c-0.146-0.124-0.459-0.363-0.66-0.486c3.35-1.139,4.815-2.906,5.309-6.086L643.548,219.961z M638.4,219.362
			c0.416,0.723,0.928,1.804,1.125,2.477l-0.809,0.097c-0.211-0.69-0.683-1.737-1.107-2.47L638.4,219.362z"/>
	</g>
</g>
<path fill="none" stroke="#000000" stroke-width="10.6459" stroke-miterlimit="10" d="M709.697,74.259
	c0.074-1.129-8.271,133.749-8.271,133.749"/>
<circle fill="#030000" stroke="#BFBFBF" stroke-width="0.231" stroke-miterlimit="10" cx="710.066" cy="68.502" r="10.82"/>
<path fill="#B81C4E" d="M709.822,77.217c0,0,50.986,24.561,111.32,3.352c0,0-30.041,44.045-5.945,90.773c0,0-94.453-3.708-111-8.241
	"/>
<g>
	
		<text transform="matrix(1 0 0 1 734.824 111.9751)" fill="#FFFFFF" font-family="'KozGoPro-Heavy-83pv-RKSJ-H'" font-size="19.9094">web</text>
	
		<text transform="matrix(1 0 0 1 713.7634 133.2446)" fill="#FFFFFF" font-family="'KozGoPro-Heavy-83pv-RKSJ-H'" font-size="19.9094">デザイン</text>
	
		<text transform="matrix(1 0 0 1 724.7107 155.1997)" fill="#FFFFFF" font-family="'KozGoPro-Heavy-83pv-RKSJ-H'" font-size="19.9094">養成科</text>
</g>
<circle fill="#92C081" cx="700.687" cy="206.128" r="12.6"/>
<circle fill="#FF7700" cx="700.687" cy="206.128" r="10.424"/>
<circle fill="#92C081" cx="192.095" cy="364.36" r="12.6"/>
<circle fill="#FF7700" cx="192.095" cy="364.36" r="10.423"/>
<g>
	<text transform="matrix(1 0 0 1 127.5916 420.5737)" fill="#231815" font-family="'KozGoPro-Heavy-83pv-RKSJ-H'" font-size="17">高等技術</text>
	<text transform="matrix(1 0 0 1 118.071 442.9458)" fill="#231815" font-family="'KozGoPro-Heavy-83pv-RKSJ-H'" font-size="17">専門校修了</text>
</g>
<g>
	
		<image overflow="visible" enable-background="new    " width="625" height="625" xlink:href="../../../Downloads/320100.png"  transform="matrix(0.1751 0 0 0.1751 380.2185 5.8042)">
	</image>
	
		<image overflow="visible" enable-background="new    " width="625" height="625" xlink:href="../../../Downloads/320096.png"  transform="matrix(0.2363 0 0 0.2363 247.5393 -18.3643)">
	</image>
</g>
<g>
	
		<image overflow="visible" enable-background="new    " width="625" height="625" xlink:href="../../../Downloads/320100.png"  transform="matrix(0.1679 0 0 0.1679 589.7507 8.0552)">
	</image>
</g>
<image overflow="visible" enable-background="new    " width="625" height="625" xlink:href="../../../Downloads/320102.png"  transform="matrix(0.195 0 0 0.195 479.2156 -2.4346)">
</image>
<g>
	
		<image overflow="visible" width="924" height="451" id="fKYZE6" xlink:href="6DE8B873.jpg"  transform="matrix(0.9999 0 0 0.9999 14.1814 -461.5088)">
	</image>
</g>
<text transform="matrix(1 0 0 1 156.5007 -282.0918)" font-family="'KozGoPro-Regular-83pv-RKSJ-H'" font-size="12">息子誕生</text>
<text transform="matrix(1 0 0 1 153.6521 -373.7993)"><tspan x="0" y="0" font-family="'KozGoPro-Regular-83pv-RKSJ-H'" font-size="12">小学校は牛田で</tspan><tspan x="0" y="16" font-family="'KozGoPro-Regular-83pv-RKSJ-H'" font-size="12">育てたいと希望</tspan><tspan x="12.239" y="32" font-family="'KozGoPro-Regular-83pv-RKSJ-H'" font-size="12">もあり引越</tspan></text>
<text transform="matrix(1 0 0 1 400.4666 -386.2471)" font-family="'KozGoPro-Regular-83pv-RKSJ-H'" font-size="12">当時中学2年生</text>
<text transform="matrix(1 0 0 1 664.3572 -413.0288)" font-family="'KozGoPro-Regular-83pv-RKSJ-H'" font-size="12">大学生</text>
<text transform="matrix(1 0 0 1 670.4773 -427.0288)" font-family="'KozGoPro-Regular-83pv-RKSJ-H'" font-size="12">現在</text>
</svg>
