<?xml version="1.0" encoding="UTF-8"?>
<svg id="_レイヤー_2" data-name="レイヤー 2" xmlns="http://www.w3.org/2000/svg" viewBox="0 0 99.37 99.37">
  <defs>
    <style>
      .cls-1 {
        fill: #f19ec2;
      }

      .cls-1, .cls-2 {
        stroke-width: 0px;
      }

      .cls-2 {
        fill: #e4007f;
      }
    </style>
  </defs>
  <g id="_レイヤー_2-2" data-name="レイヤー 2">
    <g>
      <path class="cls-1" d="m48.49,48.38S2.66,41.5,5.24,28.04c2.58-13.46,16.9-6.02,16.9-6.02,0,0-9.45-12.89,4.58-17.19,14.04-4.3,21.77,43.54,21.77,43.54Z"/>
      <path class="cls-1" d="m50.88,50.99s45.83,6.87,43.25,20.34c-2.58,13.46-16.9,6.02-16.9,6.02,0,0,9.45,12.89-4.58,17.19-14.04,4.3-21.77-43.54-21.77-43.54Z"/>
      <path class="cls-1" d="m48.38,50.88s-6.87,45.83-20.34,43.25c-13.46-2.58-6.02-16.9-6.02-16.9,0,0-12.89,9.45-17.19-4.58-4.3-14.04,43.54-21.77,43.54-21.77Z"/>
      <path class="cls-1" d="m50.99,48.49S57.86,2.66,71.33,5.24c13.46,2.58,6.01,16.9,6.01,16.9,0,0,12.89-9.45,17.19,4.58,4.3,14.04-43.54,21.77-43.54,21.77Z"/>
    </g>
    <g>
      <path class="cls-2" d="m49.76,47.92S22.22,10.65,33.56,2.95c11.34-7.7,16.2,7.7,16.2,7.7,0,0,2.43-15.8,15.39-8.91,12.96,6.89-15.39,46.18-15.39,46.18Z"/>
      <path class="cls-2" d="m49.6,51.45s27.55,37.27,16.2,44.97c-11.34,7.7-16.2-7.7-16.2-7.7,0,0-2.43,15.8-15.39,8.91-12.96-6.89,15.39-46.18,15.39-46.18Z"/>
      <path class="cls-2" d="m47.92,49.61S10.65,77.15,2.95,65.81c-7.7-11.34,7.7-16.2,7.7-16.2,0,0-15.8-2.43-8.91-15.39,6.89-12.96,46.18,15.39,46.18,15.39Z"/>
      <path class="cls-2" d="m51.45,49.76s37.27-27.55,44.97-16.2c7.7,11.34-7.7,16.2-7.7,16.2,0,0,15.8,2.43,8.91,15.39-6.89,12.96-46.18-15.39-46.18-15.39Z"/>
    </g>
  </g>
</svg>