<?xml version="1.0" encoding="UTF-8"?>
<svg id="_レイヤー_2" data-name="レイヤー 2" xmlns="http://www.w3.org/2000/svg" viewBox="0 0 97.38 97.38">
  <defs>
    <style>
      .cls-1 {
        fill: #f6ab00;
        stroke-width: 0px;
      }
    </style>
  </defs>
  <g id="_レイヤー_2-2" data-name="レイヤー 2">
    <g>
      <path class="cls-1" d="m48.69,45.1S31.27,0,48.69,0s0,45.1,0,45.1Z"/>
      <path class="cls-1" d="m48.69,52.28s17.43,45.1,0,45.1,0-45.1,0-45.1Z"/>
      <path class="cls-1" d="m45.1,48.69S0,66.12,0,48.69s45.1,0,45.1,0Z"/>
      <path class="cls-1" d="m52.28,48.69s45.1-17.43,45.1,0-45.1,0-45.1,0Z"/>
      <path class="cls-1" d="m46.16,46.15S1.94,26.58,14.26,14.26c12.32-12.32,31.89,31.89,31.89,31.89Z"/>
      <path class="cls-1" d="m51.23,51.23s44.22,19.57,31.89,31.89c-12.32,12.32-31.89-31.89-31.89-31.89Z"/>
      <path class="cls-1" d="m46.16,51.23s-19.57,44.22-31.89,31.89c-12.32-12.32,31.89-31.89,31.89-31.89Z"/>
      <path class="cls-1" d="m51.23,46.15S70.8,1.94,83.12,14.26c12.32,12.32-31.89,31.89-31.89,31.89Z"/>
    </g>
  </g>
</svg>